<?xml version="1.0" standalone="no"?>
<!DOCTYPE svg PUBLIC "-//W3C//DTD SVG 20010904//EN"
 "http://www.w3.org/TR/2001/REC-SVG-20010904/DTD/svg10.dtd">
<svg version="1.0" xmlns="http://www.w3.org/2000/svg"
 width="492.000000pt" height="425.000000pt" viewBox="0 0 492.000000 425.000000"
 preserveAspectRatio="xMidYMid meet">

<g transform="translate(0.000000,425.000000) scale(0.100000,-0.100000)"
fill="#000000" stroke="none">
<path d="M0 2125 l0 -2125 2460 0 2460 0 0 2125 0 2125 -2460 0 -2460 0 0
-2125z m1150 565 c181 -53 339 -232 369 -421 6 -36 11 -226 11 -436 l0 -373
-450 0 -450 0 0 164 c0 90 -3 171 -6 180 -6 14 22 16 265 16 l271 0 0 203 c0
191 -2 204 -23 242 -55 98 -198 115 -274 33 -44 -47 -53 -88 -53 -245 l0 -148
-180 3 -180 3 0 172 c0 186 10 249 54 335 58 113 188 231 296 267 108 36 237
37 350 5z m950 -548 l0 -217 -65 -23 -65 -24 -65 24 -65 23 0 217 0 218 130 0
130 0 0 -218z m380 0 l0 -217 -65 -23 -65 -24 -65 24 -65 23 0 217 0 218 130
0 130 0 0 -218z m390 0 l0 -217 -65 -23 -65 -24 -65 24 -65 23 0 217 0 218
130 0 130 0 0 -218z m390 0 l0 -217 -65 -23 -65 -24 -65 24 -65 23 0 217 0
218 130 0 130 0 0 -218z m390 0 l0 -217 -65 -23 -65 -24 -65 24 -65 23 0 217
0 218 130 0 130 0 0 -218z m390 0 l0 -217 -65 -23 -65 -24 -65 24 -65 23 0
217 0 218 130 0 130 0 0 -218z m390 0 l0 -217 -65 -23 -65 -24 -65 24 -65 23
0 217 0 218 130 0 130 0 0 -218z m388 -14 l-3 -232 -62 -24 -63 -24 -62 24
-63 24 -3 232 -2 232 130 0 130 0 -2 -232z"/>
<path d="M1927 2147 c-30 -135 -31 -147 -18 -147 5 0 13 17 18 38 7 32 13 37
41 40 30 3 32 1 38 -37 4 -25 12 -41 20 -41 10 0 13 7 9 23 -3 12 -14 63 -25
112 -11 50 -22 100 -25 113 -3 12 -11 22 -18 22 -9 0 -23 -43 -40 -123z m57 1
c6 -34 5 -38 -14 -38 -21 0 -24 9 -14 59 8 39 19 30 28 -21z"/>
<path d="M2290 2135 l0 -135 26 0 c37 0 84 50 85 92 3 56 -3 112 -12 130 -11
20 -60 48 -84 48 -13 0 -15 -20 -15 -135z m77 75 c16 -32 16 -118 0 -150 -7
-14 -20 -26 -30 -28 -15 -3 -17 8 -17 103 0 95 2 106 17 103 10 -2 23 -14 30
-28z"/>
<path d="M2690 2135 l0 -135 45 0 c33 0 45 4 45 15 0 10 -11 15 -35 15 -34 0
-35 1 -35 40 0 38 2 40 30 40 20 0 30 5 30 15 0 10 -10 15 -30 15 -29 0 -30 1
-30 50 l0 50 35 0 c24 0 35 5 35 15 0 11 -12 15 -45 15 l-45 0 0 -135z"/>
<path d="M3070 2135 l0 -135 26 0 c37 0 84 50 85 92 3 56 -3 112 -12 130 -11
20 -60 48 -84 48 -13 0 -15 -20 -15 -135z m77 75 c7 -14 13 -47 13 -75 0 -57
-17 -98 -43 -103 -15 -3 -17 8 -17 103 0 95 2 106 17 103 10 -2 23 -14 30 -28z"/>
<path d="M3477 2147 c-30 -135 -31 -147 -18 -147 5 0 13 17 18 38 7 32 13 37
41 40 30 3 32 1 38 -37 4 -25 12 -41 20 -41 10 0 13 7 9 23 -3 12 -14 63 -25
112 -11 50 -22 100 -25 113 -3 12 -11 22 -18 22 -9 0 -23 -43 -40 -123z m57 1
c6 -34 5 -38 -14 -38 -21 0 -24 9 -14 59 8 39 19 30 28 -21z"/>
<path d="M3860 2135 c0 -83 4 -135 10 -135 6 0 10 25 10 55 0 43 3 55 16 55 8
0 29 14 46 30 25 26 29 36 24 63 -8 40 -39 67 -77 67 l-29 0 0 -135z m78 65
c3 -24 -2 -38 -14 -47 -34 -25 -44 -16 -44 41 l0 54 28 -7 c22 -6 28 -14 30
-41z"/>
<path d="M4277 2259 c-41 -24 -62 -148 -37 -213 14 -38 53 -53 83 -33 50 32
61 170 18 227 -21 29 -39 34 -64 19z m53 -45 c14 -35 13 -128 -2 -159 -18 -39
-54 -34 -68 11 -13 38 -7 123 11 156 14 27 48 23 59 -8z"/>
<path d="M4675 1981 c-6 -11 9 -23 19 -14 9 9 7 23 -3 23 -6 0 -12 -4 -16 -9z"/>
</g>
</svg>
